<svg xmlns="http://www.w3.org/2000/svg" xml:space="preserve" fill-rule="evenodd" stroke-linejoin="round" stroke-miterlimit="2" clip-rule="evenodd" viewBox="0 0 100 149" height="15" width="10">
  <path fill="#9b54e6" d="M64.18 93.92s-5.62-3.35-8.84-3.99L40.7 86.55a66.77 66.77 0 0 1-10.5-3.37l-4.1-1.9c4.35-14.3 52.18-13.99 52.18-13.99h.22l.82.47.1.06a42.43 42.43 0 0 1 10.69 8.75 38.8 38.8 0 0 1 8.32 15.97l.02.06c-2.84.09-30.92 4.91-30.92 4.91-.91-1.35-3.35-3.59-3.35-3.59Z"/>
  <path fill="#40b5ff" d="M30.85 112.83c.23.52 1.35 2.36 1.35 2.37-1.26 14.52-23.93 16.36-23.93 16.36h-.01c-.28-.37-1.14-1.44-1.66-2.2l-.47-.7C2.04 122.46 0 115.16 0 106.72h29.64c0 2.23.4 4.25 1.19 6.05l.02.06Z"/>
  <path fill="#5971f2" d="M32.33 115.34c.13 3.76 52.33 21.82 53.17 21.86a55.2 55.2 0 0 1-9.12 5.69c-7.44 3.55-16.23 5.33-26.38 5.33-10.14 0-18.97-1.71-26.48-5.14-6.3-2.87-11.38-6.7-15.26-11.52 11.4-2.8 22.6-6.53 23.95-16.37l.12.15Z"/>
  <path fill="#5324b3" d="M98.46 92.61a51.48 51.48 0 0 1 1.54 12.92c0 8.44-2.07 15.88-6.23 22.34a39.5 39.5 0 0 1-8.32 9.31 94.76 94.76 0 0 1-35.17-11.38c-2.26-1.25-4.42-2.7-6.54-4.06 2.09.43 4.36.79 6.85.79 6.2 0 11.04-1.38 14.53-4.15 3.49-2.77 5.24-6.59 5.24-11.46 0-3.56-.94-6.69-2.81-9.4 9.13-2.73 19.3-4.56 30.9-4.9l.01-.01Z"/>
  <path fill="#ff369c" d="m2.13 45.6 29.43-25.33c.25-.23.02.01.02.01l10.39 6.3.04.01a15.12 15.12 0 0 0-5.84 3.05c-.37.32-1.07 1.05-1.07 1.05-2.32 2.58-3.48 6.12-3.48 10.61a15.1 15.1 0 0 0 3.85 10.18c2.57 2.97 6.3 4.98 11.17 6.03l14.43 3.36a67.72 67.72 0 0 1 17.44 6.42c-15.35.57-27.82-1.82-40.27-6.03C25.67 57.01 3.82 47.6 2.26 47.16l-.13-1.56Z"/>
  <path fill="#ff7cff" d="M2.26 47.17c24.55 7.04 38.03 19.66 76.03 20.13-24.63.38-38.65 7-52.18 14a46.23 46.23 0 0 1-13.96-10.85c-5.66-6.54-8.96-14.3-9.9-23.28h.01Z"/>
  <path fill="#ffd13a" d="m15 11.2 16.55 9.07L2.13 45.63s-.14-2.6-.14-3.93c0-12.65 4.45-22.92 13.01-30.5Z"/>
  <path fill="#ff7c00" d="M46.21.07c4.99-.24 9.98.02 14.92.77L31.5 20.27l-16.45-9.1c1.25-1.1 2.56-2.1 3.94-3.03 0 0-.01 0 0 0C26.25 3.24 35.39.53 46.21.07Z"/>
  <path fill="#f20c51" d="M31.58 20.28v-.03C40.18 12.6 49.52 5.48 61.12.84c9.46 1.46 17.3 4.84 23.55 10.13 8.63 7.31 12.95 17.16 12.95 29.54H75.44s-7.56-1.94-7.56-1.96c-.3-3.49-2.01-6.7-4.74-8.9-3.22-2.64-7.87-3.96-13.93-3.96-2.7 0-5.1.3-7.2.9-3.52-2.07-6.97-4.21-10.45-6.32h.02v.01Z"/>
  <path fill="#ff369c" d="m67.88 38.55 7.56 1.96h-7.45l-.11-1.96Z"/>
</svg>
